<?xml version="1.0" encoding="UTF-8" standalone="no"?><svg xmlns="http://www.w3.org/2000/svg" xmlns:xlink="http://www.w3.org/1999/xlink" fill="#06ed16" height="101.4" preserveAspectRatio="xMidYMid meet" version="1" viewBox="5.2 12.9 117.6 101.4" width="117.6" zoomAndPan="magnify"><g id="change1_1"><path d="M116.5,33.9H85.7c-1-12-11.5-21-23.5-20c-10.7,0.9-19.1,9.3-20,20H11.5c-3.4,0-6.2,2.8-6.3,6.2V108c0,3.5,2.8,6.2,6.3,6.3 h105c3.5,0,6.2-2.8,6.3-6.3V40.1C122.7,36.7,119.9,33.9,116.5,33.9z M8.8,108V40.1c0-0.2,0-0.4,0.1-0.6L48,74L8.8,108.5 C8.8,108.4,8.8,108.2,8.8,108z M64,57.4c11.4,0,20.8-8.7,21.7-20.1h30.6L66.1,81.5c-1.2,1.1-3.1,1.1-4.3,0L11.6,37.4h30.6 C43.2,48.7,52.6,57.4,64,57.4z M50.7,76.4l8.9,7.8c2.6,2.2,6.4,2.2,8.9,0l8.9-7.8l39,34.4H11.6L50.7,76.4z M80,74l39.2-34.5 c0,0.2,0.1,0.4,0.1,0.6V108c0,0.2,0,0.4-0.1,0.6L80,74z M64,17.3c10.1,0,18.3,8.2,18.3,18.3S74.1,53.9,64,53.9s-18.3-8.2-18.3-18.3 c0,0,0,0,0,0C45.7,25.5,53.9,17.3,64,17.3z" fill="inherit"/></g><g id="change1_2"><path d="M65.5,23.6h-3c-5.8,0-10.5,4.7-10.5,10.5v3c0,5.8,4.7,10.5,10.5,10.5h1.7c1,0,1.7-0.8,1.7-1.8s-0.8-1.8-1.7-1.8h-1.7 c-3.9,0-7-3.1-7-7v-3c0-3.9,3.1-7,7-7h3c3.9,0,7,3.1,7,7v5.3c0,0.5-0.4,0.9-0.9,0.9h-1.1c-0.5,0-0.9-0.4-0.9-0.9v-4.9 c0-2.5-2-4.5-4.5-4.5h-2.1c-2.5,0-4.5,2-4.5,4.5v2.1c0,2.5,2,4.5,4.5,4.5h3.5c0.7,1.6,2.2,2.7,4,2.7h1.1c2.4,0,4.4-2,4.4-4.4v-5.3 C76,28.3,71.3,23.6,65.5,23.6z M62,36.7v-2.1c0-0.5,0.4-1,1-1h2.1c0.5,0,1,0.4,1,1v3.1h-3.1C62.4,37.7,62,37.2,62,36.7z" fill="inherit"/></g></svg>