<?xml version="1.0" encoding="UTF-8" standalone="no"?><svg xmlns="http://www.w3.org/2000/svg" xmlns:xlink="http://www.w3.org/1999/xlink" fill="#06ed16" height="327.4" preserveAspectRatio="xMidYMid meet" version="1" viewBox="-0.3 -0.4 231.8 327.4" width="231.8" zoomAndPan="magnify"><g id="change1_1"><path d="m11.118 326.15c-5.1156-1.3135-8.8696-3.5213-10.206-6.0025-1.2016-2.2312-1.2058-2.6435-0.07312-7.1527 0.66108-2.6318 1.202-5.7145 1.202-6.8506s0.35237-2.4179 0.78305-2.8486 1.0808-3.1543 1.4447-6.0524 0.96263-5.6338 1.3305-6.0791c1.203-1.4564 3.0877-10.073 2.6151-11.956-0.25386-1.0114-1.6946-3.3286-3.2018-5.1493-2.4958-3.015-2.6809-3.5324-2.0754-5.8001 0.36565-1.3694 1.6207-3.879 2.7889-5.577s2.1352-3.3552 2.1487-3.6826 0.656-1.9024 1.4277-3.4999 1.4141-3.331 1.4277-3.8522 0.69656-2.4225 1.5178-4.2252 1.7723-5.6244 2.1134-8.4925 1.3031-6.5878 2.1376-8.2659 1.5173-3.3771 1.5173-3.7755 1.062-1.717 2.36-2.93c1.9759-1.8467 2.36-2.7295 2.36-5.4245 0-2.3962-0.44438-3.6919-1.7387-5.0696l-1.7387-1.8508 0.91875-11.46c0.50532-6.303 1.5328-13.965 2.2833-17.027s1.3646-6.5783 1.3646-7.8141c0-2.3059 2.1732-7.6941 4.4279-10.978 0.69803-1.0168 1.8348-3.9717 2.5263-6.5664 1.1019-4.1354 1.1309-4.9829 0.23444-6.8652-0.56247-1.1811-1.7564-2.47-2.6533-2.8642-0.90539-0.398-1.6351-1.3669-1.6407-2.1785-0.00556-0.80391 1.1494-6.1998 2.5666-11.991s2.9025-11.961 3.3007-13.712c0.44399-1.9514 1.8236-4.4315 3.5666-6.4116 2.0966-2.3819 3.0649-4.3098 3.6898-7.3469 0.466-2.2647 1.1649-5.1868 1.553-6.4936s0.63852-5.3914 0.55635-9.077 0.27572-10.295 0.79533-14.689 0.98187-12.236 1.0273-17.428c0.0993-11.358 0.62157-12.81 6.8299-18.989 5.5434-5.5175 8.6557-7.1147 12.626-6.4798 3.1595 0.50522 9.3931-1.1273 11.579-3.0325 1.6842-1.4679 2.6757-4.7385 3.072-10.134 0.71495-9.7339 3.6374-15.738 8.7445-17.964 3.4918-1.5224 11.337-2.561 14.534-1.9241 7.2646 1.447 9.0257 2.3654 11.147 5.8136 3.3217 5.4002 5.4408 12.688 4.9537 17.037-0.35972 3.2119-0.17647 4.0175 1.3376 5.8804l1.7545 2.1586-1.5626 1.6633c-0.94856 1.0097-1.2953 1.9112-0.88237 2.2942 1.0595 0.98269 27.663 1.7913 28.239 0.85837 0.53431-0.86453-2.8031-5.5843-4.6462-6.5707-0.6533-0.34964-5.1774-0.73951-10.053-0.86639l-8.8657-0.23068-3.5e-4 -2.5481-3.5e-4 -2.5481 19.062-0.05373c10.484-0.02955 19.879-0.19293 20.877-0.36308 1.6568-0.28231 1.8359-0.05552 2.0506 2.5953 0.12934 1.5976 0.76564 3.4917 1.414 4.2093 1.9698 2.18 5.5345 3.5405 7.4915 2.8591 2.4755-0.86195 6.57-0.0413 7.3042 1.464l1.2408 2.5416c0.88071 1.8022 12.896 2.5162 33.327 1.9802l16.157-0.42381v4.3935l-19.788-0.45468c-17.869-0.4106-19.884-0.33821-20.784 0.7466-0.72146 0.86963-2.1812 1.2013-5.2874 1.2013-3.3462 0-4.3937 0.26821-4.7583 1.2183-0.29747 0.77517 0.04097 1.556 0.93048 2.1468 4.3158 2.8667 4.3333 2.8931 3.251 4.9153-0.91068 1.7016-0.86296 2.0544 0.47645 3.5222 1.3909 1.5242 1.4347 1.978 0.66873 6.92-0.69754 4.5003-1.0904 5.4237-2.6352 6.1936-2.7048 1.3481-3.9311 4.541-3.7869 9.8595 0.14055 5.1824-1.5156 16.615-3.0277 20.901-0.54304 1.5392-1.2123 4.1012-1.4873 5.6935-0.50287 2.912-1.7832 4.9718-7.5198 12.098-1.7127 2.1275-3.9477 4.9494-4.9666 6.2709s-2.5586 2.7243-3.4214 3.1174-2.3626 1.1684-3.3327 1.7229-4.13 1.23-7.022 1.501c-5.962 0.55868-11.313-0.53443-17.47-3.5691-2.0598-1.0152-4.5613-2.0506-5.5589-2.301s-2.5552-1.2445-3.4615-2.2092-2.1005-1.754-2.6539-1.754c-1.3811 0-8.9262-7.2309-9.7223-9.3175-1.0642-2.7894-2.4181-1.364-2.9858 3.1436-0.29342 2.3295-1.192 6.6359-1.9969 9.5698s-1.4634 6.0371-1.4634 6.8962-0.55618 3.3263-1.236 5.4828c-1.0782 3.4203-1.1044 4.1238-0.20601 5.51 0.67417 1.0402 1.1638 4.5994 1.4175 10.304l0.38754 8.7149 3.4448 4.3559c1.8946 2.3957 4.3096 5.4231 5.3667 6.7275 1.8488 2.2815 1.8731 2.4256 0.63763 3.7907-1.1756 1.299-1.1913 1.6205-0.1856 3.8007 2.8858 6.2557 3.116 7.7021 1.6573 10.411-1.0461 1.9425-1.1677 2.7406-0.51669 3.3915 0.46822 0.46822 0.85131 2.4619 0.85131 4.4304 0 3.9007 3.2085 14.56 5.0338 16.723 0.90719 1.0752 1.0934 2.8493 0.91626 8.7305-0.21476 7.1309-0.15873 7.4409 1.6526 9.1425 3.5995 3.3815 3.8391 4.6605 4.1106 21.938l0.2546 16.206-1.99 1.9639c-2.4183 2.3866-2.6663 6.6554-0.7413 12.762 1.048 3.3247 2.1462 4.7939 6.8323 9.1408 4.0678 3.7734 6.6364 5.5352 9.4621 6.4903 13.706 4.6323 15.456 9.2114 5.3672 14.046-2.9111 1.3951-6.1719 2.4203-7.6405 2.4022-4.6918-0.05792-8.8121-1.2241-10.781-3.0514-2.4185-2.2448-8.0888-4.1786-12.253-4.1786-1.7315 0-3.7156-0.29161-4.4091-0.64802s-2.1419-0.99491-3.2187-1.4189c-2.7054-1.0652-3.2452-4.4786-1.6893-10.683 2.3117-9.2176 1.4352-17.412-2.0405-19.078-1.1091-0.53159-2.4616-2.0021-3.0055-3.2679s-1.4643-3.445-2.0453-4.8429-1.4553-5.5743-1.9429-9.281-1.348-7.6646-1.9121-8.7953c-0.95834-1.921-2.078-6.2505-2.931-11.333-0.20107-1.1982-0.65546-2.832-1.0098-3.6308-2.3854-5.3781-4.3406-10.679-4.3444-11.778-0.00246-0.71096-0.45508-2.1563-1.0058-3.2118s-1.7082-3.9965-2.5722-6.5354-2.3431-6.2501-3.2869-8.247-1.9119-4.1209-2.1513-4.72-1.0613-2.0695-1.8265-3.2677-1.4151-2.8631-1.4443-3.6998c-0.05403-1.5486-2.1269-3.9249-3.4236-3.9249-1.1976 0-4.4022 3.8751-4.8772 5.8976-0.24589 1.0471-1.5968 3.4979-3.0021 5.4462s-2.7648 4.0325-3.0212 4.6316-1.0346 2.3963-1.7292 3.9939-1.5012 4.0483-1.7922 5.4462-0.77389 2.8683-1.073 3.2677-1.4315 3.6671-2.5164 7.2616-2.2709 7.189-2.6354 7.9877c-1.2546 2.749-3.4908 6.3505-4.9011 7.8937-0.77725 0.85047-1.6581 2.3508-1.9575 3.3341s-1.2936 2.3772-2.2094 3.0975c-1.712 1.3467-2.7442 3.8951-3.5758 8.8286-0.26159 1.5519-1.106 3.9978-1.8765 5.4354s-1.4009 3.3583-1.4009 4.2683-0.31094 2.2219-0.69098 2.9154-1.2471 2.5134-1.9268 4.0443-1.9209 3.0879-2.7583 3.46c-3.5653 1.5845-5.9432 3.4306-6.8688 5.3328-1.4745 3.03-2.5046 17.922-1.4998 21.68 0.44867 1.6782 1.1102 3.411 1.47 3.8507 1.9322 2.3611 1.1772 14.336-1.0176 16.141-1.37 1.1272-7.1238 1.5184-10.308 0.70089zm147.31-201.05c1.0523-0.82776 1.9133-1.9103 1.9133-2.4057s0.98031-1.8399 2.1785-2.9878 2.1785-2.3873 2.1785-2.7541 0.85176-1.6793 1.8928-2.9165c5.4345-6.4586 11.109-27.488 8.7569-32.453-1.3629-2.8762-3.4921-2.6503-6.1461 0.65229-1.2788 1.5913-2.3251 3.2118-2.3251 3.601s-1.3314 1.7622-2.9587 3.0511c-2.8374 2.2473-7.7103 3.8242-11.564 3.7425-0.99847-0.02117-2.5779 0.67062-3.5098 1.5373-1.5857 1.4747-2.3257 1.5657-11.535 1.4177-7.887-0.12671-10.099-0.39125-11.139-1.3323-0.71362-0.64581-2.6337-1.3534-4.2669-1.5725-1.9839-0.2661-3.6665-1.1113-5.0698-2.5467-3.464-3.5431-4.7146-2.6201-5.15 3.8011-0.20284 2.9916-0.98724 7.0039-1.7431 8.9163l-1.3743 3.477 1.7924 1.9692c0.98581 1.083 2.3384 2.8507 3.0058 3.9282 1.4702 2.3737 4.7198 3.926 9.5804 4.5767 1.9969 0.26733 5.5914 1.3894 7.9877 2.4936s5.6163 2.5783 7.1554 3.2759c9.488 4.3003 16.914 5.2233 20.341 2.5283zm-0.26515-58.38c4.5166-3.0166 11.618-9.7177 11.618-10.963 0-0.45296 1.0039-2.2094 2.2308-3.9031 2.608-3.6003 2.3591-5.126-0.83649-5.126-1.6093 0-3.3303 0.87766-5.8382 2.9774-4.7025 3.9371-16.816 18.62-16.193 19.628 0.83007 1.3431 4.8299 0.18392 9.0184-2.6136zm-11.883 0.63072c1.8668-0.50093 15.151-15.954 15.151-17.625 0-0.79477-0.98668-1.3842-3.0433-1.8181-4.2106-0.88826-5.388-0.31188-4.8507 2.3746 0.41361 2.068 0.3153 2.167-2.3726 2.3876-2.6556 0.21801-2.7949 0.35126-2.63 2.5154 0.11266 1.4782-0.20786 2.4317-0.90769 2.7003-0.59502 0.22833-1.0818 1.0789-1.0818 1.8902s-0.31144 1.4751-0.69209 1.4751c-0.98079 0-3.1657 4.8545-2.5982 5.7727 0.53728 0.86933 0.86966 0.90523 3.0254 0.32676zm-21.315-12.961c3.31-1.4906 6.606-4.45 6.0172-5.4027-0.69626-1.1266-2.7773-1.0052-4.4494 0.25954-0.77526 0.58637-1.9739 1.0765-2.6636 1.0892-1.4802 0.02726-3.7982 3.255-3.1226 4.3481 0.62636 1.0135 1.4408 0.95668 4.2184-0.29419zm41.234-17.853c2.0564-1.1006 1.7364-3.3964-0.64524-4.6279-1.1274-0.583-2.4745-1.5717-2.9935-2.1971-0.73927-0.89076-2.4884-1.1371-8.0735-1.1371-4.1701 0-7.3243 0.31469-7.5983 0.75809-0.49888 0.8072 1.0706 3.6338 3.5101 6.3219 1.3256 1.4607 2.1671 1.6338 7.9394 1.6338 3.5511 0 7.0886-0.33827 7.8611-0.7517z" fill="inherit"/></g><g id="change1_2"><path d="m11.118 326.15c-5.1156-1.3135-8.8696-3.5213-10.206-6.0025-1.2016-2.2312-1.2058-2.6435-0.07312-7.1527 0.66108-2.6318 1.202-5.7145 1.202-6.8506s0.35237-2.4179 0.78305-2.8486 1.0808-3.1543 1.4447-6.0524 0.96263-5.6338 1.3305-6.0791c1.203-1.4564 3.0877-10.073 2.6151-11.956-0.25386-1.0114-1.6946-3.3286-3.2018-5.1493-2.4958-3.015-2.6809-3.5324-2.0754-5.8001 0.36565-1.3694 1.6207-3.879 2.7889-5.577s2.1352-3.3552 2.1487-3.6826 0.656-1.9024 1.4277-3.4999 1.4141-3.331 1.4277-3.8522 0.69656-2.4225 1.5178-4.2252 1.7723-5.6244 2.1134-8.4925 1.3031-6.5878 2.1376-8.2659 1.5173-3.3771 1.5173-3.7755 1.062-1.717 2.36-2.93c1.9759-1.8467 2.36-2.7295 2.36-5.4245 0-2.3962-0.44438-3.6919-1.7387-5.0696l-1.7387-1.8508 0.91875-11.46c0.50532-6.303 1.5328-13.965 2.2833-17.027s1.3646-6.5783 1.3646-7.8141c0-2.3059 2.1732-7.6941 4.4279-10.978 0.69803-1.0168 1.8348-3.9717 2.5263-6.5664 1.1019-4.1354 1.1309-4.9829 0.23444-6.8652-0.56247-1.1811-1.7564-2.47-2.6533-2.8642-0.90539-0.398-1.6351-1.3669-1.6407-2.1785-0.00556-0.80391 1.1494-6.1998 2.5666-11.991s2.9025-11.961 3.3007-13.712c0.44399-1.9514 1.8236-4.4315 3.5666-6.4116 2.0966-2.3819 3.0649-4.3098 3.6898-7.3469 0.466-2.2647 1.1649-5.1868 1.553-6.4936s0.63852-5.3914 0.55635-9.077 0.27572-10.295 0.79533-14.689 0.98187-12.236 1.0273-17.428c0.0993-11.358 0.62157-12.81 6.8299-18.989 5.5434-5.5175 8.6557-7.1147 12.626-6.4798 3.1595 0.50522 9.3931-1.1273 11.579-3.0325 1.6842-1.4679 2.6757-4.7385 3.072-10.134 0.71495-9.7339 3.6374-15.738 8.7445-17.964 3.4918-1.5224 11.337-2.561 14.534-1.9241 7.2646 1.447 9.0257 2.3654 11.147 5.8136 3.3217 5.4002 5.4408 12.688 4.9537 17.037-0.35972 3.2119-0.17647 4.0175 1.3376 5.8804l1.7545 2.1586-1.5626 1.6633c-0.94856 1.0097-1.2953 1.9112-0.88237 2.2942 1.0595 0.98269 27.663 1.7913 28.239 0.85837 0.53431-0.86453-2.8031-5.5843-4.6462-6.5707-0.6533-0.34964-5.1774-0.73951-10.053-0.86639l-8.8657-0.23068-3.5e-4 -2.5481-3.5e-4 -2.5481 19.062-0.05373c10.484-0.02955 19.879-0.19293 20.877-0.36308 1.6568-0.28231 1.8359-0.05552 2.0506 2.5953 0.12934 1.5976 0.76564 3.4917 1.414 4.2093 1.9698 2.18 5.5345 3.5405 7.4915 2.8591 2.4755-0.86195 6.57-0.0413 7.3042 1.464l1.2408 2.5416c0.88071 1.8022 12.896 2.5162 33.327 1.9802l16.157-0.42381v4.3935l-19.788-0.45468c-17.869-0.4106-19.884-0.33821-20.784 0.7466-0.72146 0.86963-2.1812 1.2013-5.2874 1.2013-3.3462 0-4.3937 0.26821-4.7583 1.2183-0.29747 0.77517 0.04097 1.556 0.93048 2.1468 4.3158 2.8667 4.3333 2.8931 3.251 4.9153-0.91068 1.7016-0.86296 2.0544 0.47645 3.5222 1.3909 1.5242 1.4347 1.978 0.66873 6.92-0.69754 4.5003-1.0904 5.4237-2.6352 6.1936-2.7048 1.3481-3.9311 4.541-3.7869 9.8595 0.14055 5.1824-1.5156 16.615-3.0277 20.901-0.54304 1.5392-1.2123 4.1012-1.4873 5.6935-0.50287 2.912-1.7832 4.9718-7.5198 12.098-1.7127 2.1275-3.9477 4.9494-4.9666 6.2709s-2.5586 2.7243-3.4214 3.1174-2.3626 1.1684-3.3327 1.7229-4.13 1.23-7.022 1.501c-5.962 0.55868-11.313-0.53443-17.47-3.5691-2.0598-1.0152-4.5613-2.0506-5.5589-2.301s-2.5552-1.2445-3.4615-2.2092-2.1005-1.754-2.6539-1.754c-1.3811 0-8.9262-7.2309-9.7223-9.3175-1.0642-2.7894-2.4181-1.364-2.9858 3.1436-0.29342 2.3295-1.192 6.6359-1.9969 9.5698s-1.4634 6.0371-1.4634 6.8962-0.55618 3.3263-1.236 5.4828c-1.0782 3.4203-1.1044 4.1238-0.20601 5.51 0.67417 1.0402 1.1638 4.5994 1.4175 10.304l0.38754 8.7149 3.4448 4.3559c1.8946 2.3957 4.3096 5.4231 5.3667 6.7275 1.8488 2.2815 1.8731 2.4256 0.63763 3.7907-1.1756 1.299-1.1913 1.6205-0.1856 3.8007 2.8858 6.2557 3.116 7.7021 1.6573 10.411-1.0461 1.9425-1.1677 2.7406-0.51669 3.3915 0.46822 0.46822 0.85131 2.4619 0.85131 4.4304 0 3.9007 3.2085 14.56 5.0338 16.723 0.90719 1.0752 1.0934 2.8493 0.91626 8.7305-0.21476 7.1309-0.15873 7.4409 1.6526 9.1425 3.5995 3.3815 3.8391 4.6605 4.1106 21.938l0.2546 16.206-1.99 1.9639c-2.4183 2.3866-2.6663 6.6554-0.7413 12.762 1.048 3.3247 2.1462 4.7939 6.8323 9.1408 4.0678 3.7734 6.6364 5.5352 9.4621 6.4903 13.706 4.6323 15.456 9.2114 5.3672 14.046-2.9111 1.3951-6.1719 2.4203-7.6405 2.4022-4.6918-0.05792-8.8121-1.2241-10.781-3.0514-2.4185-2.2448-8.0888-4.1786-12.253-4.1786-1.7315 0-3.7156-0.29161-4.4091-0.64802s-2.1419-0.99491-3.2187-1.4189c-2.7054-1.0652-3.2452-4.4786-1.6893-10.683 2.3117-9.2176 1.4352-17.412-2.0405-19.078-1.1091-0.53159-2.4616-2.0021-3.0055-3.2679s-1.4643-3.445-2.0453-4.8429-1.4553-5.5743-1.9429-9.281-1.348-7.6646-1.9121-8.7953c-0.95834-1.921-2.078-6.2505-2.931-11.333-0.20107-1.1982-0.65546-2.832-1.0098-3.6308-2.3854-5.3781-4.3406-10.679-4.3444-11.778-0.00246-0.71096-0.45508-2.1563-1.0058-3.2118s-1.7082-3.9965-2.5722-6.5354-2.3431-6.2501-3.2869-8.247-1.9119-4.1209-2.1513-4.72-1.0613-2.0695-1.8265-3.2677-1.4151-2.8631-1.4443-3.6998c-0.05403-1.5486-2.1269-3.9249-3.4236-3.9249-1.1976 0-4.4022 3.8751-4.8772 5.8976-0.24589 1.0471-1.5968 3.4979-3.0021 5.4462s-2.7648 4.0325-3.0212 4.6316-1.0346 2.3963-1.7292 3.9939-1.5012 4.0483-1.7922 5.4462-0.77389 2.8683-1.073 3.2677-1.4315 3.6671-2.5164 7.2616-2.2709 7.189-2.6354 7.9877c-1.2546 2.749-3.4908 6.3505-4.9011 7.8937-0.77725 0.85047-1.6581 2.3508-1.9575 3.3341s-1.2936 2.3772-2.2094 3.0975c-1.712 1.3467-2.7442 3.8951-3.5758 8.8286-0.26159 1.5519-1.106 3.9978-1.8765 5.4354s-1.4009 3.3583-1.4009 4.2683-0.31094 2.2219-0.69098 2.9154-1.2471 2.5134-1.9268 4.0443-1.9209 3.0879-2.7583 3.46c-3.5653 1.5845-5.9432 3.4306-6.8688 5.3328-1.4745 3.03-2.5046 17.922-1.4998 21.68 0.44867 1.6782 1.1102 3.411 1.47 3.8507 1.9322 2.3611 1.1772 14.336-1.0176 16.141-1.37 1.1272-7.1238 1.5184-10.308 0.70089zm147.31-201.05c1.0523-0.82776 1.9133-1.9103 1.9133-2.4057s0.98031-1.8399 2.1785-2.9878 2.1785-2.3873 2.1785-2.7541 0.85176-1.6793 1.8928-2.9165c5.4345-6.4586 11.109-27.488 8.7569-32.453-1.3629-2.8762-3.4921-2.6503-6.1461 0.65229-1.2788 1.5913-2.3251 3.2118-2.3251 3.601s-1.3314 1.7622-2.9587 3.0511c-2.8374 2.2473-7.7103 3.8242-11.564 3.7425-0.99847-0.02117-2.5779 0.67062-3.5098 1.5373-1.5857 1.4747-2.3257 1.5657-11.535 1.4177-7.887-0.12671-10.099-0.39125-11.139-1.3323-0.71362-0.64581-2.6337-1.3534-4.2669-1.5725-1.9839-0.2661-3.6665-1.1113-5.0698-2.5467-3.464-3.5431-4.7146-2.6201-5.15 3.8011-0.20284 2.9916-0.98724 7.0039-1.7431 8.9163l-1.3743 3.477 1.7924 1.9692c0.98581 1.083 2.3384 2.8507 3.0058 3.9282 1.4702 2.3737 4.7198 3.926 9.5804 4.5767 1.9969 0.26733 5.5914 1.3894 7.9877 2.4936s5.6163 2.5783 7.1554 3.2759c9.488 4.3003 16.914 5.2233 20.341 2.5283zm-0.26515-58.38c4.5166-3.0166 11.618-9.7177 11.618-10.963 0-0.45296 1.0039-2.2094 2.2308-3.9031 2.608-3.6003 2.3591-5.126-0.83649-5.126-1.6093 0-3.3303 0.87766-5.8382 2.9774-4.7025 3.9371-16.816 18.62-16.193 19.628 0.83007 1.3431 4.8299 0.18392 9.0184-2.6136zm-11.883 0.63072c1.8668-0.50093 15.151-15.954 15.151-17.625 0-0.79477-0.98668-1.3842-3.0433-1.8181-4.2106-0.88826-5.388-0.31188-4.8507 2.3746 0.41361 2.068 0.3153 2.167-2.3726 2.3876-2.6556 0.21801-2.7949 0.35126-2.63 2.5154 0.11266 1.4782-0.20786 2.4317-0.90769 2.7003-0.59502 0.22833-1.0818 1.0789-1.0818 1.8902s-0.31144 1.4751-0.69209 1.4751c-0.98079 0-3.1657 4.8545-2.5982 5.7727 0.53728 0.86933 0.86966 0.90523 3.0254 0.32676zm-21.315-12.961c3.31-1.4906 6.606-4.45 6.0172-5.4027-0.69626-1.1266-2.7773-1.0052-4.4494 0.25954-0.77526 0.58637-1.9739 1.0765-2.6636 1.0892-1.4802 0.02726-3.7982 3.255-3.1226 4.3481 0.62636 1.0135 1.4408 0.95668 4.2184-0.29419zm41.234-17.853c2.0564-1.1006 1.7364-3.3964-0.64524-4.6279-1.1274-0.583-2.4745-1.5717-2.9935-2.1971-0.73927-0.89076-2.4884-1.1371-8.0735-1.1371-4.1701 0-7.3243 0.31469-7.5983 0.75809-0.49888 0.8072 1.0706 3.6338 3.5101 6.3219 1.3256 1.4607 2.1671 1.6338 7.9394 1.6338 3.5511 0 7.0886-0.33827 7.8611-0.7517z" fill="inherit"/></g></svg>