<?xml version="1.0" encoding="UTF-8"?><svg xmlns="http://www.w3.org/2000/svg" xmlns:xlink="http://www.w3.org/1999/xlink" height="484.3" preserveAspectRatio="xMidYMid meet" version="1.0" viewBox="23.0 23.0 484.3 484.3" width="484.3" zoomAndPan="magnify"><g data-name="Pig" id="change1_1"><path d="M256,23A233,233,0,0,0,23.06,250.8Q23,253.39,23,256A233,233,0,0,0,420.76,420.76,233,233,0,0,0,256,23Zm0,448C137.45,471,41,374.55,41,256q0-2.41.05-4.8C43.59,135.29,140,41,256,41c118.55,0,215,96.45,215,215S374.55,471,256,471Z" fill="inherit"/><path d="M256,231.5A24.5,24.5,0,1,0,280.5,256,24.53,24.53,0,0,0,256,231.5Zm0,39A14.5,14.5,0,1,1,270.5,256,14.52,14.52,0,0,1,256,270.5Z" fill="inherit"/><path d="M309,256a5,5,0,0,0,5,5H455a5,5,0,0,0,0-10H314A5,5,0,0,0,309,256Z" fill="inherit"/><path d="M256,305a5,5,0,0,0-5,5V455a5,5,0,0,0,10,0V310A5,5,0,0,0,256,305Z" fill="inherit"/><path d="M256,205a5,5,0,0,0,5-5V57a5,5,0,0,0-10,0V200A5,5,0,0,0,256,205Z" fill="inherit"/><path d="M202,251H57a5,5,0,0,0,0,10H202a5,5,0,0,0,0-10Z" fill="inherit"/></g></svg>